<?xml version="1.0"?>
<svg xmlns:rdf="http://www.w3.org/1999/02/22-rdf-syntax-ns#" xmlns="http://www.w3.org/2000/svg" xmlns:cc="http://web.resource.org/cc/" xmlns:xlink="http://www.w3.org/1999/xlink" xmlns:dc="http://purl.org/dc/elements/1.1/" id="svg2" viewBox="0 0 468.51 692.93" version="1.0">
  <defs id="defs4">
    <linearGradient id="linearGradient9656">
      <stop id="stop9658" stop-color="#520000" offset="0"/>
      <stop id="stop9660" stop-color="#520000" stop-opacity="0" offset="1"/>
    </linearGradient>
    <linearGradient id="linearGradient5754">
      <stop id="stop5756" stop-color="#680000" offset="0"/>
      <stop id="stop5758" stop-color="#680000" stop-opacity="0" offset="1"/>
    </linearGradient>
    <linearGradient id="linearGradient7120">
      <stop id="stop7122" stop-color="#fff" offset="0"/>
      <stop id="stop7124" stop-color="#fff" stop-opacity="0" offset="1"/>
    </linearGradient>
    <linearGradient id="linearGradient4151">
      <stop id="stop4153" stop-color="#936666" offset="0"/>
      <stop id="stop4155" stop-opacity="0" offset="1"/>
    </linearGradient>
    <linearGradient id="linearGradient12248" y2="186.13" gradientUnits="userSpaceOnUse" x2="755.3" y1="389.13" x1="345.67">
      <stop id="stop12244" stop-color="#145200" offset="0"/>
      <stop id="stop12246" stop-color="#145200" stop-opacity="0" offset="1"/>
    </linearGradient>
    <linearGradient id="linearGradient2761" y2="269.36" gradientUnits="userSpaceOnUse" x2="514.15" y1="451.49" x1="729.83">
      <stop id="stop11132" stop-color="#3b0000" offset="0"/>
      <stop id="stop11134" stop-color="#3b0000" stop-opacity="0" offset="1"/>
    </linearGradient>
    <linearGradient id="linearGradient2796" y2="424.99" gradientUnits="userSpaceOnUse" y1="386.93" x2="428.29" x1="230.01">
      <stop id="stop5134" stop-color="#710303" offset="0"/>
      <stop id="stop5136" stop-color="#710303" stop-opacity="0" offset="1"/>
    </linearGradient>
    <linearGradient id="linearGradient2798" y2="443.91" xlink:href="#linearGradient4151" gradientUnits="userSpaceOnUse" x2="303.16" y1="588.08" x1="152.71"/>
    <radialGradient id="radialGradient2800" gradientUnits="userSpaceOnUse" cy="647.95" cx="384.24" gradientTransform="matrix(1 0 0 .96851 0 20.403)" r="72.846">
      <stop id="stop6113" stop-color="#e63b3b" offset="0"/>
      <stop id="stop6115" stop-color="#e63b3b" stop-opacity="0" offset="1"/>
    </radialGradient>
    <radialGradient id="radialGradient2802" xlink:href="#linearGradient7120" gradientUnits="userSpaceOnUse" cy="647.95" cx="384.24" gradientTransform="matrix(1 0 0 .96851 0 20.403)" r="72.846"/>
    <linearGradient id="linearGradient2804" y2="420.5" xlink:href="#linearGradient7120" gradientUnits="userSpaceOnUse" x2="360.72" y1="410.65" x1="500.21"/>
    <linearGradient id="linearGradient2806" y2="515.36" gradientUnits="userSpaceOnUse" y1="550.36" x2="335" x1="387">
      <stop id="stop7132" stop-color="#9c0404" offset="0"/>
      <stop id="stop7134" stop-color="#9c0404" stop-opacity="0" offset="1"/>
    </linearGradient>
    <linearGradient id="linearGradient2818" y2="437.91" xlink:href="#linearGradient4151" gradientUnits="userSpaceOnUse" x2="299.16" y1="576.08" x1="177.71"/>
    <linearGradient id="linearGradient2824" y2="425.5" xlink:href="#linearGradient7120" gradientUnits="userSpaceOnUse" x2="352.72" y1="410.65" x1="500.21"/>
    <linearGradient id="linearGradient5760" y2="663.01" xlink:href="#linearGradient5754" gradientUnits="userSpaceOnUse" x2="440" y1="674.51" x1="385.36"/>
    <linearGradient id="linearGradient5764" y2="669.51" xlink:href="#linearGradient5754" gradientUnits="userSpaceOnUse" x2="440" gradientTransform="translate(-156.5,19)" y1="674.01" x1="370.78"/>
    <linearGradient id="linearGradient5772" y2="423.71" xlink:href="#linearGradient7120" gradientUnits="userSpaceOnUse" x2="361.49" y1="486.39" x1="448.76"/>
    <linearGradient id="linearGradient9662" y2="250.39" xlink:href="#linearGradient9656" gradientUnits="userSpaceOnUse" x2="606.65" y1="340.39" x1="424.15"/>
    <linearGradient id="linearGradient3415" y2="250.39" xlink:href="#linearGradient9656" gradientUnits="userSpaceOnUse" x2="606.65" gradientTransform="matrix(.17098 .44507 -.45797 .17594 512.52 276.49)" y1="340.39" x1="424.15"/>
    <linearGradient id="linearGradient4406" y2="633.71" gradientUnits="userSpaceOnUse" x2="540.67" y1="525.87" x1="429.11">
      <stop id="stop4402" stop-color="#1a6f00" offset="0"/>
      <stop id="stop4404" stop-color="#1a6f00" stop-opacity="0" offset="1"/>
    </linearGradient>
    <radialGradient id="radialGradient7383" gradientUnits="userSpaceOnUse" cy="873.36" cx="348" gradientTransform="matrix(1 0 0 .24603 0 658.49)" r="126.02">
      <stop id="stop7375" stop-color="#676767" offset="0"/>
      <stop id="stop7377" stop-color="#676767" stop-opacity="0" offset="1"/>
    </radialGradient>
    <radialGradient id="radialGradient7391" gradientUnits="userSpaceOnUse" cy="873.36" cx="348" gradientTransform="matrix(1 0 0 .24603 0 658.49)" r="126.02">
      <stop id="stop7387" stop-color="#464646" offset="0"/>
      <stop id="stop7389" stop-color="#464646" stop-opacity="0" offset="1"/>
    </radialGradient>
    <filter id="filter9559">
      <feGaussianBlur id="feGaussianBlur9561" stdDeviation="1.7858363"/>
    </filter>
    <filter id="filter9707">
      <feGaussianBlur id="feGaussianBlur9709" stdDeviation="1.8499463"/>
    </filter>
  </defs>
  <g id="layer1" transform="translate(-159.63 -195.44)">
    <g id="g9711">
      <path id="path7381" d="m294.17 845.33a126 31 0 1 1 -0.08 0.01" fill="url(#radialGradient7383)" transform="translate(-20,-16)"/>
      <path id="path11187" d="m294.17 845.33a126 31 0 1 1 -0.08 0.01" fill="url(#radialGradient7391)" transform="translate(128,-16)"/>
      <path id="path3333" d="m394.54 501.02c-3.61 2.36-7.89 6.39-9.89 9.48-6.27 9.7-8.18 22.74-9.32 33.21-2.59 12.47 1.49 19.48 4.53 30.95 6.67 22.29 9.88 0.74 15.93-13.27-0.53 14.86-11.52 24.97 7.5 35.93 7 7 13.19 12.4 11.72 9.82-4.55-8.04 6.95-22.26 3.19-33.93 3.15-10.56 9.73 8.91 10.28 10.35 2.96 4.98 7.62 31.44 12.38 25.38 9.67-15.14 9.4-29.24 13.23-29.86 20.36 24.3 31.04 15.19 51.04 17.94 1.94 0.16 2.91 1.43 4.75 0.73 16.79-20.43-2.84-47.63-23.55-57.87 0.27-4.92 33.16-0.36 30.67-2.87-9.23-9.3-17.96-11.75-35.2-13.16 0.73-9.03 27.42-16.53 19-20.16s-27.54 7.57-35.71 5.53c10.3-6.02 42.3-20.05 17.2-20.9-32.99 0.44-43.93 8.47-38.56 3.36 5.38-5.11 19.86-20.03 5.64-20.75-15.22-0.7-24.87 12.53-41.85 12.41-19.22 5.46-9.48 10.21-12.98 17.68z" fill-rule="evenodd" stroke="#000" stroke-width="2.27" fill="url(#linearGradient4406)"/>
      <path id="path2362" d="m395.52 495.38l2.76 1.94c-45.12 54.53-121.83-7.5-175.63-12.9 0.28-4.31-0.03-4.24 1.09-8.7 56.61 14.11 136.87 65.21 171.78 19.66z" fill="#3f0000" fill-rule="evenodd"/>
      <path id="path11056" stroke-linejoin="round" d="m263.94 306.22a120 117.14 0 1 1 -0.22 0.13" transform="matrix(.88293 0 0 .88824 14.561 385.45)" stroke="#060000" stroke-width="9.0336" fill="url(#linearGradient2796)"/>
      <path id="path11058" d="m263.94 306.22a120 117.14 0 1 1 -0.22 0.13" fill="#e81d1d" transform="matrix(.88293 0 0 .88824 14.561 385.45)"/>
      <path id="path11060" opacity=".97177" d="m263.94 306.22a120 117.14 0 1 1 -0.22 0.13" fill="url(#linearGradient2818)" transform="matrix(.88293 0 0 .88824 14.561 386.34)"/>
      <path id="path11062" opacity=".78629" d="m347.18 588.2a71.988 69.695 0 1 1 -0.13 0.07" stroke-opacity="0" transform="matrix(.88293 0 0 .88824 -18.142 151.09)" fill="url(#radialGradient2800)"/>
      <path id="path11064" opacity=".78629" d="m347.18 588.2a71.988 69.695 0 1 1 -0.13 0.07" stroke-opacity="0" transform="matrix(.24273 0 0 .26337 240.07 501.7)" fill="url(#radialGradient2802)"/>
      <path id="path11068" opacity=".53629" d="m263.94 306.22a120 117.14 0 1 1 -0.22 0.13" fill="url(#linearGradient2824)" transform="matrix(.88293 0 0 .88824 15.678 385)"/>
      <path id="path11070" opacity=".53629" d="m332.07 505.79a29 24 0 1 1 -0.05 0.02" fill="url(#linearGradient2806)" transform="matrix(.64070 -.61116 .60750 .64456 -293.93 548.14)"/>
      <path id="path11088" d="m505.12 197.41a194 157 0 1 1 -0.12 0.05" fill="url(#linearGradient2761)" transform="matrix(.49357 0 0 .50158 12.783 602.14)"/>
      <path id="path4161" stroke-linejoin="round" d="m263.94 306.22a120 117.14 0 1 1 -0.22 0.13" transform="translate(137.43 328)" stroke="#060000" stroke-width="8" fill="url(#linearGradient2796)"/>
      <path id="path2160" d="m263.94 306.22a120 117.14 0 1 1 -0.22 0.13" fill="#e81d1d" transform="translate(137.43 328)"/>
      <path id="path3180" opacity=".97177" d="m263.94 306.22a120 117.14 0 1 1 -0.22 0.13" fill="url(#linearGradient2798)" transform="translate(138.43 329)"/>
      <path id="path5140" opacity=".78629" d="m347.18 588.2a71.988 69.695 0 1 1 -0.13 0.07" stroke-opacity="0" transform="translate(100.39 64.157)" fill="url(#radialGradient2800)"/>
      <path id="path6121" opacity=".78629" d="m347.18 588.2a71.988 69.695 0 1 1 -0.13 0.07" stroke-opacity="0" transform="matrix(.27491 0 0 .29651 406.43 471.26)" fill="url(#radialGradient2802)"/>
      <path id="path7118" opacity=".53629" d="m263.94 306.22a120 117.14 0 1 1 -0.22 0.13" fill="url(#linearGradient2804)" transform="translate(137.43 328.5)"/>
      <path id="path7128" opacity=".53629" d="m332.07 505.79a29 24 0 1 1 -0.05 0.02" fill="url(#linearGradient2806)" transform="matrix(.72566 -.68806 .68806 .72566 -211.97 511.16)"/>
      <path id="path8131" d="m224.11 484.37c5.11-12.73 1.54-1.31 3.84-8.24 59.79 35.21 169.5 117.1 198.35 183.45-0.44 10.25-14.4 23.92-29.49 20.38-26.33-65.72-107.92-162.57-172.7-195.59z" fill="#520000" fill-rule="evenodd"/>
      <path id="path11084" d="m222.49 482.99c10.36-2.49 8.15-0.86 11.7-0.28 59.78 35.2 7.48 128.72 36.33 195.06 0.52 11.95-18.13 27.82-35.86 19.69-26.33-65.73 52.61-181.45-12.17-214.47z" fill="#420000" fill-rule="evenodd"/>
      <path id="path12226" d="m350 382.36c0.05 1.81 0.36 3.94 0.87 6.25 1.9 8.59 6.58 19.68 11.13 25.75 14.26 19.01 38.36 32.18 58 42 22.48 14.05 39.26 11.41 64 14 46.87 4.48-3.43-12.33-14-40 29.38 10.37 47.32 24.45 76 12 18.95-8.21 33.28-11.86 28.03-15.14-12.33-7.7-38-30.01-64.03-30.86-18.29-13.72 24.78-12 28-12 11.98-1.98 79.66 13.1 59-5-22.36-29.47-50.18-39.25-48.5-47 35.69-23.72 53.08-47.94 73.5-84 1.79-3.58 5-4.5 5-8.5-30.47-31.66-97.92-16.96-131 2.5-2.56-3.02 67.03-61.36 5-41.5-34.57 10.56-60.77 31.5-81 59.5-4.06-23.99-7.45-95.14-28-48-23.94 63.09-27.53 67.81-33.6 53.9s-23.1-47.46-36.4-25.9c-21.21 28.16-13 99.2-8 132 2.35 9.41 27.31 4.79 36 10z" fill-rule="evenodd" stroke="#000" stroke-width="2.277" fill="url(#linearGradient12248)"/>
      <path id="path4775" filter="url(#filter9559)" d="m380.5 676.36c22.66 7.4 46.87 3.02 47-28l12.5-2.5c-0.31 40.22-24.87 50.94-58.5 40.5-7.09-4.72-6.15-6.38-1-10z" fill="url(#linearGradient5760)" fill-rule="evenodd"/>
      <path id="path5762" filter="url(#filter9707)" d="m224 695.36c22.66 7.4 46.87 3.02 47-28l12.5-2.5c-0.31 40.22-26.37 54.44-60 44-7.09-4.72-4.65-9.88 0.5-13.5z" fill="url(#linearGradient5764)" fill-rule="evenodd"/>
      <path id="path5770" opacity=".53629" d="m263.94 306.22a120 117.14 0 1 1 -0.22 0.13" fill="url(#linearGradient5772)" transform="matrix(-.44198 .76434 -.76893 -.44464 756.72 675.9)"/>
      <path id="path6745" d="m346.89 381.36l2.76 1.94c-38.19 36.05-72.74 105.06-126.77 100.26 0.28-4.3 0.32-3.88 1.44-8.34 58.61 6.44 98.98-82.43 122.57-93.86z" fill="#520000" fill-rule="evenodd"/>
      <path id="path8685" d="m625.39 240.86l2.26 0.44c-6.52-15.69-240.44 85.01-278.67 143.12 0.28-4.31-9.4 5.86-8.28 1.4 21.57-35.29 242.66-154.57 284.69-144.96z" fill="url(#linearGradient9662)" fill-rule="evenodd"/>
      <path id="path2278" d="m367.75 374.86c37.03 48.33 82.26 65.79 135 94" stroke="#000" stroke-width="1px" fill="none"/>
      <path id="path2280" d="m331.25 233.36c6.44 38.32 4.2 79.24 22.5 114" stroke="#000" stroke-width="1px" fill="none"/>
      <path id="path2282" d="m404 196.36c-5.68 39.27-14.42 89.35-7 126" stroke="#000" stroke-width="1px" fill="none"/>
      <path id="path2284" d="m526 197.36c-38.07 25.48-65.4 41.15-68 88" stroke="#000" stroke-width="1px" fill="none"/>
      <path id="path2286" d="m575 430.36c-58.69 7.76-138.02-34.16-168-76" stroke="#000" stroke-width="1px" fill="none"/>
      <path id="path2288" d="m600 384.36c-34.48-5.25-111.26-31.6-130-64" stroke="#000" stroke-width="1px" fill="none"/>
      <path id="path2290" d="m438.23 435.42l21-8" stroke="#000" stroke-width="1px" fill="none"/>
      <path id="path2292" d="m423 425.36l-1 18" stroke="#000" stroke-width="1px" fill="none"/>
      <path id="path2294" d="m393.53 402.36h29" stroke="#000" stroke-width="1px" fill="none"/>
      <path id="path2296" d="m404.82 412.08l-6.01 20.15" stroke="#000" stroke-width="1px" fill="none"/>
      <path id="path2298" d="m379.72 388.74l-5.31 14.14" stroke="#000" stroke-width="1px" fill="none"/>
      <path id="path2300" d="m348.96 336.06l14.85-24.39" stroke="#000" stroke-width="1px" fill="none"/>
      <path id="path2302" d="m341.89 313.79l-20.16-15.2" stroke="#000" stroke-width="1px" fill="none"/>
      <path id="path2304" d="m337.64 289.75l12.02-15.56" stroke="#000" stroke-width="1px" fill="none"/>
      <path id="path2306" d="m419.67 368.94l4.59 26.17" stroke="#000" stroke-width="1px" fill="none"/>
      <path id="path2308" d="m440.53 386.97l30.4-6.01" stroke="#000" stroke-width="1px" fill="none"/>
      <path id="path2310" d="m472.35 406.77l7.78 16.27" stroke="#000" stroke-width="1px" fill="none"/>
      <path id="path2312" d="m508.76 422.33l15.91-10.96" stroke="#000" stroke-width="1px" fill="none"/>
      <path id="path2314" d="m519.37 425.51l6.72 11.67" stroke="#000" stroke-width="1px" fill="none"/>
      <path id="path2316" d="m474.47 327.22l44.19 1.42" stroke="#000" stroke-width="1px" fill="none"/>
      <path id="path2318" d="m485.78 337.83l6.01 26.87" stroke="#000" stroke-width="1px" fill="none"/>
      <path id="path2320" d="m509.12 352.68l39.95-3.18" stroke="#000" stroke-width="1px" fill="none"/>
      <path id="path2322" d="m529.27 362.58l15.91 15.2" stroke="#000" stroke-width="1px" fill="none"/>
      <path id="path2324" d="m559.68 373.89l20.15-2.47" stroke="#000" stroke-width="1px" fill="none"/>
      <path id="path2326" d="m395.27 312.73l16.62-32.88" stroke="#000" stroke-width="1px" fill="none"/>
      <path id="path2328" d="m394.21 297.53l-16.97-20.16" stroke="#000" stroke-width="1px" fill="none"/>
      <path id="path2330" d="m395.27 263.23l14.14-21.21" stroke="#000" stroke-width="1px" fill="none"/>
      <path id="path2332" d="m398.1 236.36l-6.01-12.37" stroke="#000" stroke-width="1px" fill="none"/>
      <path id="path2334" d="m459.27 273.13l22.98-22.63" stroke="#000" stroke-width="1px" fill="none"/>
      <path id="path2336" d="m463.51 257.93l-0.36-25.1" stroke="#000" stroke-width="1px" fill="none"/>
      <path id="path2338" d="m487.73 224.87l3.71-14.67" stroke="#000" stroke-width="1px" fill="none"/>
      <path id="path2340" d="m478.89 233.53l25.28-7.78" stroke="#000" stroke-width="1px" fill="none"/>
      <path id="path2342" d="m508.41 209.31l6.01-9.37" stroke="#000" stroke-width="1px" fill="none"/>
      <path id="path2344" d="m500.81 214.62l16.09-3.01" stroke="#000" stroke-width="1px" fill="none"/>
      <path id="path2346" d="m352.12 344.19l-23-19" stroke="#000" stroke-width="1px" fill="none"/>
      <path id="path2348" d="m335.88 275.25l-9.55-15.2" stroke="#000" stroke-width="1px" fill="none"/>
      <path id="path2350" d="m393.86 281.62l8.84-12.73" stroke="#000" stroke-width="1px" fill="none"/>
      <path id="path2352" d="m451.13 394.05l10.61 21.92" stroke="#000" stroke-width="1px" fill="none"/>
      <path id="path3335" d="m509.14 597.21l0.19 1.08c6.07-5.66-79.87-91.53-113.01-98.32 2.02-0.63-3.06-4.04-0.82-4.32 19.84 3.39 110.86 81.16 113.64 101.56z" fill="url(#linearGradient3415)" fill-rule="evenodd"/>
      <path id="path3417" d="m414.75 607.61c-13.58-22.8-17.2-51.62-3.75-76.25" stroke="#000" stroke-width="1px" fill="none"/>
      <path id="path3419" d="m385 584.11c0.54-20.97-7.57-43.07 6.75-62.25" stroke="#000" stroke-width="1px" fill="none"/>
      <path id="path3421" d="m439.5 609.61c-2.39-20.55-9.29-41.32 0.75-61.25" stroke="#000" stroke-width="1px" fill="none"/>
      <path id="path3423" d="m455.02 473.95c-12.51 2.64-22.71 7.26-28.63 15.56" stroke="#000" stroke-width="1px" fill="none"/>
      <path id="path3425" d="m492.15 490.92c-15.78 3.04-32.29 4.27-46.32 11.67" stroke="#000" stroke-width="1px" fill="none"/>
      <path id="path3427" d="m503.11 505.42c-15.35 2.64-28.38 8.19-39.96 15.55" stroke="#000" stroke-width="1px" fill="none"/>
      <path id="path3429" d="m517.25 537.23c-14.98-4.55-29.99-9.03-47.73-5.3" stroke="#000" stroke-width="1px" fill="none"/>
      <path id="path6346" d="m404.82 584.26l10.25 3.89" stroke="#000" stroke-width="1px" fill="none"/>
      <path id="path6348" d="m402.34 571.18l-7.77 14.49" stroke="#000" stroke-width="1px" fill="none"/>
      <path id="path6350" d="m403.05 556.33l7.78 13.79" stroke="#000" stroke-width="1px" fill="none"/>
      <path id="path6352" d="m435.58 578.6l9.19 9.19" stroke="#000" stroke-width="1px" fill="none"/>
      <path id="path6354" d="m435.22 564.81l-4.95 11.32" stroke="#000" stroke-width="1px" fill="none"/>
      <path id="path6356" d="m436.99 556.68l7.43 12.73" stroke="#000" stroke-width="1px" fill="none"/>
      <path id="path6358" d="m383.61 554.56l6.71 12.02" stroke="#000" stroke-width="1px" fill="none"/>
      <path id="path6360" d="m383.96 561.63l-4.24 5.3" stroke="#000" stroke-width="1px" fill="none"/>
      <path id="path6362" d="m383.25 543.25l-6.36 8.48" stroke="#000" stroke-width="1px" fill="none"/>
      <path id="path6364" d="m388.56 528.4l8.13 16.26" stroke="#000" stroke-width="1px" fill="none"/>
      <path id="path6366" d="m468.1 518.14l8.49 7.07" stroke="#000" stroke-width="1px" fill="none"/>
      <path id="path6368" d="m472.53 515.71l4.95-5.66" stroke="#000" stroke-width="1px" fill="none"/>
      <path id="path6370" d="m483.31 510.72l6.01 1.77" stroke="#000" stroke-width="1px" fill="none"/>
      <path id="path6372" d="m475.18 514.25l8.83 1.06" stroke="#000" stroke-width="1px" fill="none"/>
      <path id="path6374" d="m479.06 530.52l7.08-4.6" stroke="#000" stroke-width="1px" fill="none"/>
      <path id="path6376" d="m488.76 530.79l9.54-1.06" stroke="#000" stroke-width="1px" fill="none"/>
      <path id="path6378" d="m474.74 531.14l9.9 3.89" stroke="#000" stroke-width="1px" fill="none"/>
      <path id="path6380" d="m485.78 530.52l9.55 5.3" stroke="#000" stroke-width="1px" fill="none"/>
      <path id="path6382" d="m455.88 498.26l11.66 3.54" stroke="#000" stroke-width="1px" fill="none"/>
      <path id="path6384" d="m450.12 500.36l7.42-6.01" stroke="#000" stroke-width="1px" fill="none"/>
      <path id="path6386" d="m463.4 496.12l10.61 2.83" stroke="#000" stroke-width="1px" fill="none"/>
      <path id="path6388" d="m471.97 494.37l7.43-4.24" stroke="#000" stroke-width="1px" fill="none"/>
      <path id="path6390" d="m430.98 484.91l11.67 1.06" stroke="#000" stroke-width="1px" fill="none"/>
      <path id="path6392" d="m436.8 480.46l5.31-6.72" stroke="#000" stroke-width="1px" fill="none"/>
      <path id="path6394" d="m445.48 476.78l6.01 2.47" stroke="#000" stroke-width="1px" fill="none"/>
      <path id="path6398" d="m405.53 543.25l9.9 17.32" stroke="#000" stroke-width="1px" fill="none"/>
      <path id="path6400" d="m403.4 550.67l-8.13 6.36" stroke="#000" stroke-width="1px" fill="none"/>
      <path id="path6402" d="m385.73 534.05l-6.72 4.95" stroke="#000" stroke-width="1px" fill="none"/>
      <path id="path7395" d="m231.58 488.44l-1.77-12.37c-43.55-4.89-66.46-67.94-53.21-68.24-11.66-2.42-14.56 0.84-16.97 4.42 10.89 31.32 30.52 62.46 71.95 76.19z" fill="#520000" fill-rule="evenodd"/>
    </g>
  </g>
  <metadata>
    <rdf:RDF>
      <cc:Work>
        <dc:format>image/svg+xml</dc:format>
        <dc:type rdf:resource="http://purl.org/dc/dcmitype/StillImage"/>
        <cc:license rdf:resource="http://creativecommons.org/licenses/publicdomain/"/>
        <dc:publisher>
          <cc:Agent rdf:about="http://openclipart.org/">
            <dc:title>Openclipart</dc:title>
          </cc:Agent>
        </dc:publisher>
      </cc:Work>
      <cc:License rdf:about="http://creativecommons.org/licenses/publicdomain/">
        <cc:permits rdf:resource="http://creativecommons.org/ns#Reproduction"/>
        <cc:permits rdf:resource="http://creativecommons.org/ns#Distribution"/>
        <cc:permits rdf:resource="http://creativecommons.org/ns#DerivativeWorks"/>
      </cc:License>
    </rdf:RDF>
  </metadata>
</svg>
