<?xml version="1.0" encoding="UTF-8" standalone="no"?>
<!-- Created with Inkscape (http://www.inkscape.org/) -->

<svg
   version="1.1"
   id="svg6297"
   xml:space="preserve"
   width="1066.6667"
   height="1066.6667"
   viewBox="0 0 1066.6667 1066.6667"
   sodipodi:docname="watermelon-vector-publicdomainvectors.org.svg"
   inkscape:version="1.1.2 (b8e25be833, 2022-02-05)"
   xmlns:inkscape="http://www.inkscape.org/namespaces/inkscape"
   xmlns:sodipodi="http://sodipodi.sourceforge.net/DTD/sodipodi-0.dtd"
   xmlns="http://www.w3.org/2000/svg"
   xmlns:svg="http://www.w3.org/2000/svg"><defs
     id="defs6301"><clipPath
       clipPathUnits="userSpaceOnUse"
       id="clipPath6311"><path
         d="M 0,800 H 800 V 0 H 0 Z"
         id="path6309" /></clipPath></defs><sodipodi:namedview
     id="namedview6299"
     pagecolor="#ffffff"
     bordercolor="#666666"
     borderopacity="1.0"
     inkscape:pageshadow="2"
     inkscape:pageopacity="0.0"
     inkscape:pagecheckerboard="0"
     showgrid="false"
     inkscape:zoom="0.77906244"
     inkscape:cx="533.33337"
     inkscape:cy="533.33337"
     inkscape:window-width="1920"
     inkscape:window-height="1018"
     inkscape:window-x="-8"
     inkscape:window-y="-8"
     inkscape:window-maximized="1"
     inkscape:current-layer="g6303" /><g
     id="g6303"
     inkscape:groupmode="layer"
     inkscape:label="watermelon-vector-publicdomainvectors.org"
     transform="matrix(1.3333333,0,0,-1.3333333,0,1066.6667)"><g
       id="g6305"><g
         id="g6307"
         clip-path="url(#clipPath6311)"><path
           d="m 415.201,115.438 c 120.442,0 218.674,30.028 218.674,66.844 0,36.816 -98.232,66.843 -218.674,66.843 -120.439,0 -218.672,-30.027 -218.672,-66.843 0,-36.816 98.233,-66.844 218.672,-66.844"
           style="fill:#e6e6e6;fill-opacity:1;fill-rule:evenodd;stroke:none"
           id="path6313" /><path
           d="m 415.201,146.131 c 128.182,0 232.727,126.352 232.727,281.271 0,154.919 -104.545,281.27 -232.727,281.27 -128.18,0 -232.725,-126.351 -232.725,-281.27 0,-154.919 104.545,-281.271 232.725,-281.271"
           style="fill:#2f4710;fill-opacity:1;fill-rule:evenodd;stroke:none"
           id="path6315" /><path
           d="m 412.76,702.509 c 111.771,0 202.381,-106.126 202.381,-237.038 0,-130.914 -90.61,-237.04 -202.381,-237.04 -111.769,0 -202.38,106.126 -202.38,237.04 0,130.912 90.611,237.038 202.38,237.038"
           style="fill:#3a5418;fill-opacity:1;fill-rule:evenodd;stroke:none"
           id="path6317" /><path
           d="m 410.32,696.347 c 95.01,0 172.032,-86.323 172.032,-192.809 0,-106.483 -77.022,-192.809 -172.032,-192.809 -95.012,0 -172.035,86.326 -172.035,192.809 0,106.486 77.023,192.809 172.035,192.809"
           style="fill:#456121;fill-opacity:1;fill-rule:evenodd;stroke:none"
           id="path6319" /><path
           d="m 407.877,690.185 c 78.252,0 141.687,-66.521 141.687,-148.579 0,-82.057 -63.435,-148.577 -141.687,-148.577 -78.252,0 -141.688,66.52 -141.688,148.577 0,82.058 63.436,148.579 141.688,148.579"
           style="fill:#4f6d29;fill-opacity:1;fill-rule:evenodd;stroke:none"
           id="path6321" /><path
           d="m 405.438,475.328 c 61.322,0 111.339,46.874 111.339,104.347 0,57.472 -50.017,104.347 -111.339,104.347 -61.327,0 -111.343,-46.875 -111.343,-104.347 0,-57.473 50.016,-104.347 111.343,-104.347"
           style="fill:#5a7a31;fill-opacity:1;fill-rule:evenodd;stroke:none"
           id="path6323" /><path
           d="m 408.582,670.374 c 30.299,-173.177 23.777,-342.792 1.412,-510.875 -22.222,171.426 -28.083,341.997 -1.412,510.875"
           style="fill:#3a5418;fill-opacity:1;fill-rule:evenodd;stroke:none"
           id="path6325" /><path
           d="m 408.582,670.374 c 26.156,-149.504 24.871,-296.354 9.639,-441.854 -1.815,-0.058 -3.633,-0.089 -5.461,-0.089 -3.629,0 -7.237,0.118 -10.817,0.339 -15.156,148.105 -16.438,295.489 6.639,441.604"
           style="fill:#456121;fill-opacity:1;fill-rule:evenodd;stroke:none"
           id="path6327" /><path
           d="m 408.582,670.374 c 21.195,-121.148 24.371,-240.554 16.709,-358.909 -4.937,-0.478 -9.926,-0.736 -14.971,-0.736 -5.172,0 -10.284,0.272 -15.337,0.773 -7.827,120.268 -5.176,239.989 13.599,358.872"
           style="fill:#4f6d29;fill-opacity:1;fill-rule:evenodd;stroke:none"
           id="path6329" /><path
           d="m 408.582,670.374 c 16.24,-92.829 21.9,-184.635 20.211,-275.729 -6.826,-1.059 -13.807,-1.616 -20.916,-1.616 -5.6,0 -11.122,0.352 -16.554,1.015 -2.106,92.519 2.784,184.674 17.259,276.33"
           style="fill:#5a7a31;fill-opacity:1;fill-rule:evenodd;stroke:none"
           id="path6331" /><path
           d="m 408.582,670.374 c 11.328,-64.749 17.508,-128.998 19.637,-192.856 -7.356,-1.433 -14.975,-2.19 -22.783,-2.19 -4.768,0 -9.466,0.282 -14.076,0.826 1.595,64.956 7.035,129.712 17.222,194.22"
           style="fill:#6f9143;fill-opacity:1;fill-rule:evenodd;stroke:none"
           id="path6333" /><path
           d="m 409.029,670.374 c 20.516,-173.177 16.102,-342.792 0.955,-510.875 -15.046,171.426 -19.014,341.997 -0.955,510.875"
           style="fill:#273b0c;fill-opacity:1;fill-rule:evenodd;stroke:none"
           id="path6335" /><path
           d="m 409.029,670.374 c 17.715,-149.52 16.84,-296.386 6.524,-441.901 -0.932,-0.016 -1.86,-0.042 -2.793,-0.042 -2.754,0 -5.49,0.083 -8.219,0.212 -10.27,148.148 -11.142,295.574 4.488,441.731"
           style="fill:#2e4511;fill-opacity:1;fill-rule:evenodd;stroke:none"
           id="path6337" /><path
           d="m 409.029,670.374 c 14.369,-121.285 16.506,-240.824 11.297,-359.311 -3.314,-0.212 -6.648,-0.334 -10.006,-0.334 -3.521,0 -7.013,0.134 -10.482,0.367 -5.321,120.405 -3.537,240.261 9.191,359.278"
           style="fill:#375217;fill-opacity:1;fill-rule:evenodd;stroke:none"
           id="path6339" /><path
           d="m 409.029,670.374 c 11.03,-93.103 14.854,-185.177 13.676,-276.536 -4.873,-0.532 -9.82,-0.809 -14.828,-0.809 -3.541,0 -7.05,0.14 -10.524,0.409 -1.45,92.722 1.853,185.08 11.676,276.936"
           style="fill:#43611e;fill-opacity:1;fill-rule:evenodd;stroke:none"
           id="path6341" /><path
           d="m 409.029,670.374 c 7.711,-65.084 11.899,-129.665 13.319,-193.85 -5.516,-0.788 -11.164,-1.196 -16.912,-1.196 -2.715,0 -5.408,0.096 -8.076,0.275 1.067,65.14 4.751,130.08 11.669,194.771"
           style="fill:#4e6e26;fill-opacity:1;fill-rule:evenodd;stroke:none"
           id="path6343" /><path
           d="m 476.25,670.374 c 147.676,-91.372 164.283,-380.151 1.41,-510.875 133.377,168.468 128.227,366.759 -1.41,510.875"
           style="fill:#3a5418;fill-opacity:1;fill-rule:evenodd;stroke:none"
           id="path6345" /><path
           d="m 476.25,670.374 c 95.602,-59.152 136.242,-201.03 108.85,-329.206 -8.793,-16.69 -19.307,-32.004 -31.246,-45.609 46.054,131.915 18.308,268.191 -77.604,374.815"
           style="fill:#456121;fill-opacity:1;fill-rule:evenodd;stroke:none"
           id="path6347" /><path
           d="m 476.25,670.374 c 52.803,-32.671 88.828,-90.583 105.896,-157.479 0.133,-3.101 0.206,-6.22 0.206,-9.357 0,-19.914 -2.696,-39.122 -7.696,-57.193 -5.797,80.659 -39.035,158.026 -98.406,224.029"
           style="fill:#4f6d29;fill-opacity:1;fill-rule:evenodd;stroke:none"
           id="path6349" /><path
           d="m 476.25,670.374 c 13.713,-8.485 26.291,-18.675 37.701,-30.279 19.33,-22.876 32.033,-52.046 34.959,-84.209 -16.603,40.592 -40.889,79.167 -72.66,114.488"
           style="fill:#5a7a31;fill-opacity:1;fill-rule:evenodd;stroke:none"
           id="path6351" /><path
           d="m 476.697,670.374 c 129.373,-97.262 164.11,-362.845 0.955,-510.875 143.151,155.074 122.127,396.714 -0.955,510.875"
           style="fill:#273b0c;fill-opacity:1;fill-rule:evenodd;stroke:none"
           id="path6353" /><path
           d="M 348.413,670.374 C 200.737,579.002 184.13,290.223 347.003,159.499 213.625,327.967 218.776,526.258 348.413,670.374"
           style="fill:#3a5418;fill-opacity:1;fill-rule:evenodd;stroke:none"
           id="path6355" /><path
           d="m 348.413,670.374 c -95.602,-59.152 -136.244,-201.03 -108.85,-329.206 8.793,-16.69 19.307,-32.004 31.247,-45.609 -46.056,131.915 -18.308,268.191 77.603,374.815"
           style="fill:#456121;fill-opacity:1;fill-rule:evenodd;stroke:none"
           id="path6357" /><path
           d="m 348.413,670.374 c -52.803,-32.671 -88.83,-90.583 -105.898,-157.479 -0.13,-3.101 -0.203,-6.22 -0.203,-9.357 0,-19.914 2.695,-39.122 7.696,-57.193 5.794,80.659 39.034,158.026 98.405,224.029"
           style="fill:#4f6d29;fill-opacity:1;fill-rule:evenodd;stroke:none"
           id="path6359" /><path
           d="m 348.413,670.374 c -13.711,-8.485 -26.289,-18.675 -37.701,-30.279 -19.329,-22.876 -32.033,-52.046 -34.959,-84.209 16.604,40.592 40.889,79.167 72.66,114.488"
           style="fill:#5a7a31;fill-opacity:1;fill-rule:evenodd;stroke:none"
           id="path6361" /><path
           d="M 347.965,670.374 C 218.591,573.112 183.856,307.529 347.011,159.499 203.861,314.573 224.883,556.213 347.965,670.374"
           style="fill:#273b0c;fill-opacity:1;fill-rule:evenodd;stroke:none"
           id="path6363" /><path
           d="m 457.387,620.586 c -44.944,-29.275 14.58,-69.517 14.57,-69.871 -0.561,-16.828 -35.496,1.72 1.254,-23.764 2.391,-1.657 15.572,-29.666 8.293,-38.85 -41.053,-51.818 -6.731,-30.681 -13.613,-72.984 -1.789,-10.992 -26.006,-15.392 -7.176,-34.13 10.17,-10.118 -0.764,-21.435 27.855,-36.286 18.369,-9.532 -28.841,-23.629 -28.318,-40.023 0.787,-24.688 -13.465,-25.161 -6.221,-40.27 10.133,-21.136 -55.743,-102.194 17.19,-74.075 23.845,9.194 15.093,43.673 30.965,55.14 43.513,31.437 -30.268,31.863 -6.604,56.966 6.941,7.363 41.66,55.813 41.227,66.954 -1.477,37.772 -48.83,11.942 -28.895,57.92 0.477,1.099 15.436,39.527 15.443,39.697 1.336,29.898 -21.169,17.541 5.811,51.32 10.523,13.176 -20.217,20.133 -20.217,50.937 0,25.199 -5.955,28.915 -21.008,48.046 -4.873,6.192 -24.095,7.482 -30.556,3.273 m -84.512,15.756 c -31.985,11.202 -35.247,-18.599 -28.074,-26.014 -5.643,-13.322 -15.919,12.241 -17.596,-13.232 -0.007,-0.068 -3.62,-10.984 -4.64,-16.288 -13.91,-1.956 -21.086,5.296 -26.246,-26.738 -2.759,-17.123 35.765,-3.034 -6.685,-25.073 -51.57,-26.775 20.9,-23.95 -9.603,-41.77 -16.308,-9.528 1.567,-33.282 -7.259,-44.253 -11.199,-13.923 10.588,-15.784 -3.492,-33.176 -14.723,-18.19 29.967,-18.529 0.22,-46.246 -13.562,-12.634 37.011,-13.916 20.515,-26.326 -24.569,-18.491 6.12,-10.119 10.615,-37.952 2.189,-13.561 -25.638,-21.169 15.742,-42.506 12.032,-6.205 -16.133,-28.755 13.997,-38.443 10.593,-3.405 -11.785,-33.176 23.325,-33.176 25.243,0 -8.135,40.499 -1.582,46.135 40.111,34.499 15.391,17.496 -13.124,52.057 -8.851,10.73 58.53,17.601 20.191,39.561 -48.319,27.672 29.298,13.498 -1.584,44.635 -21.966,22.148 -7.553,15.497 8.212,34.131 -23.906,29.197 -60.904,9.922 -22.862,29.847 25.424,13.316 -0.96,22.11 -0.628,40.979 0.628,35.579 3.646,10.157 12.959,27.528 5.381,10.038 -57.025,51.913 3.438,48.947 21.776,-1.07 -12.365,48.547 4.94,53.638 0.084,0.025 16.971,8.873 12.878,13.123 -8.508,8.833 16.536,-2.896 -1.747,17.147 z M 255.03,223.356 c -44.685,51.252 -72.554,123.713 -72.554,204.046 0,88.672 33.963,167.745 87.009,219.299 9.748,-8.66 11.753,-7.313 -5.779,-17.765 -16.999,-10.132 23.698,5.352 -6.305,-30.393 -51.823,-61.748 14.905,-29.695 -13.504,-53.147 -1.49,-1.231 -28.611,-30.467 -29.14,-31.13 2.286,-8.185 7.945,6 -11.131,-5.485 -15.259,-9.188 24.043,-39.518 -0.163,-55.056 -21.335,-13.697 34.142,-18.989 0.163,-66.844 -10.045,-14.15 33.614,-41.659 12.878,-47.826 -0.575,-0.173 12.132,-0.177 13.615,-19.289 0.435,-5.622 3.461,-33.362 4.692,-34.432 5.858,-5.097 19.644,-38.141 20.219,-61.978 m 302.855,426.251 c 54.785,-51.461 90.043,-131.853 90.043,-222.205 0,-81.826 -28.92,-155.478 -75.069,-206.876 0.698,18.528 4.077,36.302 10.084,43.145 20.707,23.592 9.602,29.121 13.614,35.521 29.744,47.443 13.271,83.508 24.746,102.175 10.81,17.588 1.611,18.285 5.511,33.259 5.016,19.255 -4.164,42.353 -20.134,55.303 -40.543,32.871 -0.244,36.879 -12.032,49.9 -21.892,24.187 11.954,15.578 -8.976,38.823 -22.596,25.096 -10.74,26.548 -28.348,39.779 -9.056,6.807 -6.263,19.054 0.561,31.176"
           style="fill:#678534;fill-opacity:1;fill-rule:evenodd;stroke:none"
           id="path6365" /><path
           d="m 268.688,631.92 c 7.451,4.518 9.314,6.144 7.588,8.564 -2.594,-2.776 -5.12,-5.635 -7.588,-8.564 M 214.532,513.454 c 5.228,0.561 1.864,-5.051 0.225,0.812 0.529,0.663 27.65,29.899 29.14,31.13 28.409,23.452 -38.319,-8.601 13.504,53.147 18.359,21.872 10.246,24.563 5.08,25.679 -23.665,-30.709 -40.564,-68.705 -47.949,-110.768 m -4.108,-51.943 c -0.019,1.318 -0.044,2.635 -0.044,3.96 0,2.917 0.063,5.819 0.151,8.712 1.222,-4.416 1.525,-8.744 -0.107,-12.672 m 4.507,-46.176 c -0.515,2.813 -1.002,5.642 -1.432,8.492 0.882,-2.539 1.423,-5.35 1.432,-8.492 M 358.689,237.001 c -22.978,7.444 -44.319,19.504 -63.236,35.293 -6.88,10.702 6.733,17.337 5.177,26.98 -4.495,27.833 -35.184,19.461 -10.615,37.952 16.496,12.41 -34.077,13.692 -20.515,26.326 29.747,27.717 -14.943,28.056 -0.22,46.246 14.08,17.392 -7.707,19.253 3.492,33.176 8.826,10.971 -9.049,34.725 7.259,44.253 30.503,17.82 -41.967,14.995 9.603,41.77 42.45,22.039 3.926,7.95 6.685,25.073 5.16,32.034 12.336,24.782 26.246,26.738 1.02,5.304 4.633,16.22 4.64,16.288 1.677,25.473 11.953,-0.09 17.596,13.232 -7.173,7.415 -3.911,37.216 28.074,26.014 l 1.91,-3.465 c 18.283,-20.043 -6.761,-8.314 1.747,-17.147 4.093,-4.25 -12.794,-13.098 -12.878,-13.123 -17.305,-5.091 16.836,-54.708 -4.94,-53.638 -60.463,2.966 1.943,-38.909 -3.438,-48.947 -9.313,-17.371 -12.331,8.051 -12.959,-27.528 -0.332,-18.869 26.052,-27.663 0.628,-40.979 -38.042,-19.925 -1.044,-0.65 22.862,-29.847 -15.765,-18.634 -30.178,-11.983 -8.212,-34.131 30.882,-31.137 -46.735,-16.963 1.584,-44.635 38.339,-21.96 -29.042,-28.831 -20.191,-39.561 26.79,-32.47 50.224,-19.431 19.701,-46.34 M 516.041,261.6 c -20.68,-14.404 -43.732,-24.618 -68.312,-29.633 5.162,13.232 9.488,25.797 6.302,32.441 -7.244,15.109 7.008,15.582 6.221,40.27 -0.523,16.394 46.687,30.491 28.318,40.023 -28.619,14.851 -17.685,26.168 -27.855,36.286 -18.83,18.738 5.387,23.138 7.176,34.13 6.882,42.303 -27.44,21.166 13.613,72.984 7.279,9.184 -5.902,37.193 -8.293,38.85 -36.75,25.484 -1.815,6.936 -1.254,23.764 0.01,0.354 -59.514,40.596 -14.57,69.871 6.461,4.209 25.683,2.919 30.556,-3.273 15.053,-19.131 21.008,-22.847 21.008,-48.046 0,-30.804 30.74,-37.761 20.217,-50.937 -26.98,-33.779 -4.475,-21.422 -5.811,-51.32 -0.007,-0.17 -14.966,-38.598 -15.443,-39.697 -19.935,-45.978 27.418,-20.148 28.895,-57.92 0.433,-11.141 -34.286,-59.591 -41.227,-66.954 -18.728,-19.868 23.566,-24.281 20.459,-40.839 m 98.604,220.377 c -2.405,2.927 -5.073,5.606 -7.965,7.952 -40.543,32.871 -0.244,36.879 -12.032,49.9 -21.892,24.187 11.954,15.578 -8.976,38.823 -22.596,25.096 -10.74,26.548 -28.348,39.779 -5.849,4.396 -6.754,11.063 -4.824,18.499 35.416,-39.614 58.57,-94.129 62.145,-154.953"
           style="fill:#749143;fill-opacity:1;fill-rule:evenodd;stroke:none"
           id="path6367" /><path
           d="m 241.99,543.474 c 1.023,1.063 1.703,1.755 1.907,1.922 12.115,10 6.93,9.908 1.014,11.3 -1.11,-4.345 -2.082,-8.757 -2.921,-13.222 M 367.736,316.688 c -34.805,9.936 -65.37,31.763 -88.047,61.398 3.074,14.152 -21.964,17.435 -10.409,31.712 14.08,17.392 -7.707,19.253 3.492,33.176 8.826,10.971 -9.049,34.725 7.259,44.253 30.503,17.82 -41.967,14.995 9.603,41.77 42.45,22.039 3.926,7.95 6.685,25.073 5.16,32.034 12.336,24.782 26.246,26.738 1.02,5.304 4.633,16.22 4.64,16.288 1.677,25.473 11.953,-0.09 17.596,13.232 -7.173,7.415 -3.911,37.216 28.074,26.014 l 1.91,-3.465 c 18.283,-20.043 -6.761,-8.314 1.747,-17.147 4.093,-4.25 -12.794,-13.098 -12.878,-13.123 -17.305,-5.091 16.836,-54.708 -4.94,-53.638 -60.463,2.966 1.943,-38.909 -3.438,-48.947 -9.313,-17.371 -12.331,8.051 -12.959,-27.528 -0.332,-18.869 26.052,-27.663 0.628,-40.979 -38.042,-19.925 -1.044,-0.65 22.862,-29.847 -15.765,-18.634 -30.178,-11.983 -8.212,-34.131 30.882,-31.137 -46.735,-16.963 1.584,-44.635 3.874,-2.221 6.654,-4.284 8.557,-6.214 m 168.821,55.881 c -14.934,-18.069 -32.914,-32.928 -53.032,-43.547 8.157,6.033 13.424,11.331 5.045,15.679 -28.619,14.851 -17.685,26.168 -27.855,36.286 -18.83,18.738 5.387,23.138 7.176,34.13 6.882,42.303 -27.44,21.166 13.613,72.984 7.279,9.184 -5.902,37.193 -8.293,38.85 -36.75,25.484 -1.815,6.936 -1.254,23.764 0.01,0.354 -59.514,40.596 -14.57,69.871 6.461,4.209 25.683,2.919 30.556,-3.273 15.053,-19.131 21.008,-22.847 21.008,-48.046 0,-30.804 30.74,-37.761 20.217,-50.937 -26.98,-33.779 -4.475,-21.422 -5.811,-51.32 -0.007,-0.17 -14.966,-38.598 -15.443,-39.697 -19.348,-44.62 24.678,-21.614 28.643,-54.744"
           style="fill:#839e54;fill-opacity:1;fill-rule:evenodd;stroke:none"
           id="path6369" /><path
           d="m 364.471,400.143 c -39.693,13.384 -71.75,44.623 -87.564,84.702 0.865,0.866 1.896,1.665 3.124,2.382 30.503,17.82 -41.967,14.995 9.603,41.77 42.45,22.039 3.926,7.95 6.685,25.073 5.16,32.034 12.336,24.782 26.246,26.738 1.02,5.304 4.633,16.22 4.64,16.288 1.677,25.473 11.953,-0.09 17.596,13.232 -7.173,7.415 -3.911,37.216 28.074,26.014 l 1.91,-3.465 c 18.283,-20.043 -6.761,-8.314 1.747,-17.147 4.093,-4.25 -12.794,-13.098 -12.878,-13.123 -17.305,-5.091 16.836,-54.708 -4.94,-53.638 -60.463,2.966 1.943,-38.909 -3.438,-48.947 -9.313,-17.371 -12.331,8.051 -12.959,-27.528 -0.332,-18.869 26.052,-27.663 0.628,-40.979 -38.042,-19.925 -1.044,-0.65 22.862,-29.847 -0.445,-0.529 -0.891,-1.035 -1.336,-1.525 m 149.759,43.306 c -15.134,-18.017 -34.367,-32.158 -56.173,-40.821 3.898,4.078 9.045,7.643 9.834,12.489 6.882,42.303 -27.44,21.166 13.613,72.984 7.279,9.184 -5.902,37.193 -8.293,38.85 -36.75,25.484 -1.815,6.936 -1.254,23.764 0.01,0.354 -59.514,40.596 -14.57,69.871 6.461,4.209 25.683,2.919 30.556,-3.273 15.053,-19.131 21.008,-22.847 21.008,-48.046 0,-30.804 30.74,-37.761 20.217,-50.937 -26.98,-33.779 -4.475,-21.422 -5.811,-51.32 -0.003,-0.097 -4.859,-12.607 -9.127,-23.561"
           style="fill:#8ea862;fill-opacity:1;fill-rule:evenodd;stroke:none"
           id="path6371" /><path
           d="m 344.36,492.422 c -17.605,10.847 -31.735,26.24 -40.475,44.406 12.284,7.52 2.206,5.768 -3.892,9.252 -1.268,3.497 -2.339,7.078 -3.211,10.731 5.129,28.869 12.285,22.098 25.783,23.997 1.02,5.304 4.633,16.22 4.64,16.288 1.677,25.473 11.953,-0.09 17.596,13.232 -7.173,7.415 -3.911,37.216 28.074,26.014 l 1.91,-3.465 c 18.283,-20.043 -6.761,-8.314 1.747,-17.147 4.093,-4.25 -12.794,-13.098 -12.878,-13.123 -17.305,-5.091 16.836,-54.708 -4.94,-53.638 -60.463,2.966 1.943,-38.909 -3.438,-48.947 -5.694,-10.626 -9.036,-5.242 -10.916,-7.6 m 168.404,59.417 c -5.395,-18.302 -15.969,-34.586 -30.16,-47.378 -2.358,10.457 -7.92,21.47 -9.393,22.49 -36.75,25.484 -1.815,6.936 -1.254,23.764 0.01,0.354 -59.514,40.596 -14.57,69.871 6.461,4.209 25.683,2.919 30.556,-3.273 15.053,-19.131 21.008,-22.847 21.008,-48.046 0,-6.891 1.541,-12.586 3.813,-17.428"
           style="fill:#9eb871;fill-opacity:1;fill-rule:evenodd;stroke:none"
           id="path6373" /><path
           d="m 400.625,693.596 c -8.419,15.206 -17.411,34.708 -11.178,50.934 3.767,9.806 33.682,12.138 31.459,1.871 -3.248,-15.007 -10.736,-36.403 -2.336,-54.474 2.532,-5.448 -15.035,-3.587 -17.945,1.669"
           style="fill:#2f4710;fill-opacity:1;fill-rule:evenodd;stroke:none"
           id="path6375" /><path
           d="m 388.269,740.713 c 0.308,1.289 0.696,2.562 1.178,3.817 3.767,9.806 33.682,12.138 31.459,1.871 -2.328,-10.745 -6.824,-24.768 -6.109,-38.5 -0.225,0.028 -0.44,0.062 -0.637,0.105 -4.822,1.032 -6.308,4.239 -6.267,8.504 0.025,2.519 -4.891,7.931 -6.602,9.818 0.516,-4.039 -5.263,-7.554 -5.541,-6.183 -0.925,4.606 2.005,5.914 -3.666,9.278 -2.395,1.419 -0.166,4.711 -2.543,8.99 -0.491,0.883 -0.912,1.638 -1.272,2.3"
           style="fill:#506e28;fill-opacity:1;fill-rule:evenodd;stroke:none"
           id="path6377" /><path
           d="m 399.444,751.557 c 9.855,2.961 22.96,1.766 21.462,-5.156 -0.447,-2.067 -0.976,-4.256 -1.531,-6.541 -3.857,-4.404 -10.863,-12.546 -11.32,-10.218 -0.975,4.966 -7.384,3.328 -10.187,6.963 -1.993,2.583 0.136,2.032 -4.05,6.043 -2.18,2.089 1.722,6.065 5.626,8.909"
           style="fill:#9eb871;fill-opacity:1;fill-rule:evenodd;stroke:none"
           id="path6379" /></g></g></g></svg>
