<?xml version="1.0" encoding="UTF-8" standalone="no"?>
<!-- Created with Inkscape (http://www.inkscape.org/) -->

<svg
   xmlns:dc="http://purl.org/dc/elements/1.1/"
   xmlns:cc="http://creativecommons.org/ns#"
   xmlns:rdf="http://www.w3.org/1999/02/22-rdf-syntax-ns#"
   xmlns:svg="http://www.w3.org/2000/svg"
   xmlns="http://www.w3.org/2000/svg"
   xmlns:sodipodi="http://sodipodi.sourceforge.net/DTD/sodipodi-0.dtd"
   xmlns:inkscape="http://www.inkscape.org/namespaces/inkscape"
   version="1.1"
   id="svg98648"
   xml:space="preserve"
   width="1066.6667"
   height="1066.6667"
   viewBox="0 0 1066.6667 1066.6667"
   sodipodi:docname="pineapple-fruit-publicdomainvectors.org.svg"
   inkscape:version="0.92.4 (5da689c313, 2019-01-14)"><metadata
     id="metadata98654"><rdf:RDF><cc:Work
         rdf:about=""><dc:format>image/svg+xml</dc:format><dc:type
           rdf:resource="http://purl.org/dc/dcmitype/StillImage" /><dc:title></dc:title></cc:Work></rdf:RDF></metadata><defs
     id="defs98652"><clipPath
       clipPathUnits="userSpaceOnUse"
       id="clipPath98664"><path
         d="M 0,800 H 800 V 0 H 0 Z"
         id="path98662"
         inkscape:connector-curvature="0" /></clipPath></defs><sodipodi:namedview
     pagecolor="#ffffff"
     bordercolor="#666666"
     borderopacity="1"
     objecttolerance="10"
     gridtolerance="10"
     guidetolerance="10"
     inkscape:pageopacity="0"
     inkscape:pageshadow="2"
     inkscape:window-width="797"
     inkscape:window-height="480"
     id="namedview98650"
     showgrid="false"
     inkscape:zoom="0.22124998"
     inkscape:cx="533.33337"
     inkscape:cy="533.33337"
     inkscape:window-x="0"
     inkscape:window-y="0"
     inkscape:window-maximized="0"
     inkscape:current-layer="g98656" /><g
     id="g98656"
     inkscape:groupmode="layer"
     inkscape:label="pineapple-fruit-publicdomainvectors.org"
     transform="matrix(1.3333333,0,0,-1.3333333,0,1066.6667)"><g
       id="g98658"><g
         id="g98660"
         clip-path="url(#clipPath98664)"><path
           d="M -0.136,801.256 H 802.248 V -1.128 H -0.136 Z"
           style="fill:#e3fae5;fill-opacity:1;fill-rule:evenodd;stroke:none"
           id="path98666"
           inkscape:connector-curvature="0" /><path
           d="m 416.561,51.332 c 91.349,0 165.853,26.101 165.853,58.106 0,32.004 -74.504,58.109 -165.853,58.109 -91.352,0 -165.857,-26.105 -165.857,-58.109 0,-32.005 74.505,-58.106 165.857,-58.106"
           style="fill:#d5f2d7;fill-opacity:1;fill-rule:evenodd;stroke:none"
           id="path98668"
           inkscape:connector-curvature="0" /><path
           d="m 395.057,79.641 c 76.941,0 139.696,69.161 139.696,153.956 0,84.794 -62.755,153.953 -139.696,153.953 -76.944,0 -139.7,-69.159 -139.7,-153.953 0,-84.795 62.756,-153.956 139.7,-153.956"
           style="fill:#fab950;fill-opacity:1;fill-rule:evenodd;stroke:none"
           id="path98670"
           inkscape:connector-curvature="0" /><path
           d="m 395.292,387.546 c 77.043,-0.142 139.461,-69.011 139.461,-153.949 0,-84.942 -62.418,-153.812 -139.461,-153.954 z"
           style="fill:#edab40;fill-opacity:1;fill-rule:evenodd;stroke:none"
           id="path98672"
           inkscape:connector-curvature="0" /><path
           d="m 422.451,149.276 18.492,-24.42 -18.492,-24.416 -18.492,24.416 z m -47.65,0 18.494,-24.42 -18.494,-24.416 -18.49,24.416 z m -47.649,0 18.493,-24.42 -18.493,-24.416 -18.491,24.416 z m 143.661,56.066 18.492,-24.419 -18.492,-24.419 -18.492,24.419 z m -47.651,0 18.492,-24.419 -18.492,-24.419 -18.492,24.419 z m -47.65,0 18.494,-24.419 -18.494,-24.419 -18.49,24.419 z m -47.649,0 18.492,-24.419 -18.492,-24.419 -18.491,24.419 z m 166.774,-28.447 18.492,-24.419 -18.492,-24.42 -18.492,24.42 z m -47.648,0 -18.492,-24.419 18.492,-24.42 18.491,24.42 z m -47.651,0 18.492,-24.419 -18.492,-24.42 -18.492,24.42 z m -47.648,0 18.49,-24.419 -18.49,-24.42 -18.495,24.42 z m -47.65,0 -18.494,-24.419 18.494,-24.42 18.492,24.42 z m 190.597,55.588 18.492,-24.416 -18.492,-24.419 -18.492,24.419 z m -47.648,0 -18.492,-24.416 18.492,-24.419 18.491,24.419 z m -47.651,0 -18.492,-24.416 18.492,-24.419 18.492,24.419 z m -47.648,0 -18.495,-24.416 18.495,-24.419 18.49,24.419 z m -47.65,0 -18.494,-24.416 18.494,-24.419 18.492,24.419 z m 190.254,56.698 18.49,-24.419 -18.49,-24.419 -18.491,24.419 z m -47.65,0 18.492,-24.419 -18.492,-24.419 -18.493,24.419 z m -47.651,0 -18.492,-24.419 18.492,-24.419 18.492,24.419 z m -47.648,0 18.489,-24.419 -18.489,-24.419 -18.494,24.419 z m -47.651,0 18.493,-24.419 -18.493,-24.419 -18.492,24.419 z m 166.774,-28.448 18.492,-24.42 -18.492,-24.418 -18.492,24.418 z m -47.649,0 18.493,-24.42 -18.493,-24.418 -18.494,24.418 z m -47.65,0 18.492,-24.42 -18.492,-24.418 -18.492,24.418 z m -47.65,0 18.494,-24.42 -18.494,-24.418 -18.493,24.418 z m -47.65,0 18.492,-24.42 -18.492,-24.418 -18.491,24.418 z m 190.599,55.59 -18.492,-24.419 18.492,-24.42 18.492,24.42 z m -47.649,0 -18.494,-24.419 18.494,-24.42 18.493,24.42 z m -47.65,0 18.492,-24.419 -18.492,-24.42 -18.492,24.42 z m -47.65,0 -18.493,-24.419 18.493,-24.42 18.494,24.42 z m 96.011,56.066 -18.491,-24.419 18.491,-24.42 18.492,24.42 z m -47.65,0 -18.492,-24.419 18.492,-24.42 18.492,24.42 z m 71.474,-28.449 18.493,-24.419 -18.493,-24.418 -18.492,24.418 z m -47.65,0 18.494,-24.419 -18.494,-24.418 -18.49,24.418 z m -47.648,0 -18.492,-24.419 18.492,-24.418 18.492,24.418 z m -47.649,0 18.491,-24.419 -18.491,-24.418 -18.494,24.418 z m 30.911,28.854 16.738,-22.1 18.492,24.418 -6.525,8.619 c -10.02,-2.506 -19.63,-6.199 -28.705,-10.937 m -12.273,-7.254 c 2.309,1.533 4.664,2.991 7.057,4.378 l 16.622,-21.948 -18.492,-24.42 -18.493,24.42 z m -18.654,-14.826 0.102,0.094 -0.086,-0.114 z m -40.053,-62.718 15.531,-20.512 18.492,24.42 -18.492,24.419 -8.642,-11.412 c -2.593,-5.454 -4.894,-11.101 -6.889,-16.915 m -8.817,-46.963 c 0.603,13.928 2.885,27.368 6.629,40.085 l 12.387,-16.356 -18.492,-24.419 z m 5.566,-51.182 13.795,18.216 -18.492,24.416 -1.006,-1.326 c 0.202,-14.329 2.179,-28.182 5.703,-41.306 m 4.402,-13.902 c -0.828,2.259 -1.608,4.543 -2.341,6.854 l 17.066,22.539 18.492,-24.419 -18.492,-24.419 z m 31.681,-52.181 c -6.871,7.441 -13.051,15.656 -18.416,24.519 l 0.749,0.989 18.492,-24.42 z m 16.533,-15.337 c -4.324,3.421 -8.464,7.101 -12.399,11.03 l 2.023,2.673 z m 45.877,-23.776 9.889,13.06 -18.49,24.419 -18.495,-24.419 2.308,-3.05 c 7.883,-4.157 16.172,-7.523 24.788,-10.01 m 25.563,-4.623 c -6.309,0.487 -12.503,1.43 -18.554,2.81 l 8.212,10.842 z m 18.517,-0.091 13.459,17.774 -18.492,24.419 -18.492,-24.419 13.673,-18.057 c 0.415,-0.005 0.832,-0.017 1.247,-0.017 2.892,0 5.757,0.108 8.605,0.3 m 25.852,4.423 c -5.469,-1.53 -11.066,-2.704 -16.769,-3.5 l 9.708,12.82 z m 34.001,15.01 -17.235,22.76 -18.495,-24.419 8.519,-11.248 c 9.549,3.248 18.657,7.596 27.211,12.907 m 12.261,8.555 c -2.38,-1.861 -4.822,-3.635 -7.307,-5.33 l -16.857,22.257 18.492,24.42 18.49,-24.42 z m 53.557,83.06 -10.867,14.353 -18.492,-24.419 17.023,-22.483 c 5.183,10.194 9.348,21.094 12.336,32.549 m 5.03,31.032 c -0.543,-8.052 -1.648,-15.929 -3.27,-23.587 l -7.295,9.633 z m 0.302,16.864 -16.545,21.848 -18.492,-24.42 18.492,-24.418 16.633,21.964 c -0.003,1.682 -0.036,3.357 -0.088,5.026 m -4.642,34.553 c 1.762,-7.275 3.055,-14.763 3.838,-22.421 l -10.409,13.745 z m -14.914,38.91 -15.481,-20.444 18.492,-24.42 9.977,13.177 c -3.253,11.171 -7.63,21.789 -12.988,31.687 m -21.246,30.082 c 6.819,-7.522 12.934,-15.823 18.233,-24.762 l -17.089,-22.565 -18.491,24.418 z m -27.514,23.578 -13.66,-18.038 18.492,-24.42 18.015,23.79 c -6.999,7.039 -14.654,13.299 -22.847,18.668 m -32.601,15.553 c 9.665,-3.064 18.902,-7.245 27.585,-12.412 l -13.977,-18.455 -18.492,24.418 z m -38.691,5.988 c 4.84,0 9.621,-0.271 14.329,-0.8 l 8.814,-11.637 -18.494,-24.418 -18.49,24.418 9.351,12.349 c 1.491,0.053 2.988,0.088 4.49,0.088"
           style="fill:#e8a12e;fill-opacity:1;fill-rule:evenodd;stroke:none"
           id="path98674"
           inkscape:connector-curvature="0" /><path
           d="m 422.451,149.276 -18.492,-24.42 18.492,-24.416 18.492,24.416 z m 48.362,56.066 -18.492,-24.419 18.492,-24.419 18.492,24.419 z m -47.651,0 -18.492,-24.419 18.492,-24.419 18.492,24.419 z m 71.475,-28.447 18.492,-24.419 -18.492,-24.42 -18.492,24.42 z m -47.648,0 -18.492,-24.419 18.492,-24.42 18.491,24.42 z m 47.648,55.588 18.492,-24.416 -18.492,-24.419 -18.492,24.419 z m -47.648,0 18.491,-24.416 -18.491,-24.419 -18.492,24.419 z m 47.305,56.698 18.49,-24.419 -18.49,-24.419 -18.491,24.419 z m -47.65,0 18.492,-24.419 -18.492,-24.419 -18.493,24.419 z m 23.824,-28.448 18.492,-24.42 -18.492,-24.418 -18.492,24.418 z m -47.649,0 -18.494,-24.42 18.494,-24.418 18.493,24.418 z m 47.649,55.59 -18.492,-24.419 18.492,-24.42 18.492,24.42 z m -47.649,0 -18.494,-24.419 18.494,-24.42 18.493,24.42 z m 0.711,56.066 -18.491,-24.419 18.491,-24.42 18.492,24.42 z m 23.824,-28.449 18.493,-24.419 -18.493,-24.418 -18.492,24.418 z m -17.842,-259.576 -7.061,9.32 -9.708,-12.82 c 5.703,0.796 11.3,1.97 16.769,3.5 m 34.001,15.01 -17.235,22.76 -18.495,-24.419 8.519,-11.248 c 9.549,3.248 18.657,7.596 27.211,12.907 m 12.261,8.555 c -2.38,-1.861 -4.822,-3.635 -7.307,-5.33 l -16.857,22.257 18.492,24.42 18.49,-24.42 z m 53.557,83.06 -10.867,14.353 -18.492,-24.419 17.023,-22.483 c 5.183,10.194 9.348,21.094 12.336,32.549 m 5.03,31.032 c -0.543,-8.052 -1.648,-15.929 -3.27,-23.587 l -7.295,9.633 z m 0.302,16.864 -16.545,21.848 -18.492,-24.42 18.492,-24.418 16.633,21.964 c -0.003,1.682 -0.036,3.357 -0.088,5.026 m -4.642,34.553 c 1.762,-7.275 3.055,-14.763 3.838,-22.421 l -10.409,13.745 z m -14.914,38.91 -15.481,-20.444 18.492,-24.42 9.977,13.177 c -3.253,11.171 -7.63,21.789 -12.988,31.687 m -21.246,30.082 c 6.819,-7.522 12.934,-15.823 18.233,-24.762 l -17.089,-22.565 -18.491,24.418 z m -27.514,23.578 -13.66,-18.038 18.492,-24.42 18.015,23.79 c -6.999,7.039 -14.654,13.299 -22.847,18.668 m -32.601,15.553 c 9.665,-3.064 18.902,-7.245 27.585,-12.412 l -13.977,-18.455 -18.492,24.418 z m -38.454,-80.629 v 37.179 l 4.412,5.829 18.494,-24.419 -18.494,-24.418 z m 0,-55.701 v 39.059 l 3.701,4.891 18.492,-24.419 -18.492,-24.419 z m 0,-56.238 v 38.149 l 4.046,5.341 18.492,-24.416 -18.492,-24.419 z m 0,-55.592 v 38.148 l 4.046,5.346 18.492,-24.419 -18.492,-24.42 z m 0,-53.76 v 38.086 l 3.335,4.407 18.492,-24.419 -13.459,-17.774 c -2.771,-0.187 -5.558,-0.295 -8.368,-0.3 m 0,307.908 c 4.757,-0.01 9.461,-0.279 14.092,-0.8 l 8.814,-11.637 -18.494,-24.418 -4.412,5.828 z"
           style="fill:#d9911c;fill-opacity:1;fill-rule:evenodd;stroke:none"
           id="path98676"
           inkscape:connector-curvature="0" /><path
           d="M 389.741,482.058 428.188,599.67 459.936,591.475 441.214,451.41 Z"
           style="fill:#0c8752;fill-opacity:1;fill-rule:evenodd;stroke:none"
           id="path98678"
           inkscape:connector-curvature="0" /><path
           d="m 387.502,493.222 -85.48,139.974 41.307,-179.402 z"
           style="fill:#16b36f;fill-opacity:1;fill-rule:evenodd;stroke:none"
           id="path98680"
           inkscape:connector-curvature="0" /><path
           d="m 366.223,497.66 -16.99,180.983 66.271,-191.262 z"
           style="fill:#0a8f55;fill-opacity:1;fill-rule:evenodd;stroke:none"
           id="path98682"
           inkscape:connector-curvature="0" /><path
           d="m 386.675,485.681 26.861,245.114 17.838,-265.047 z"
           style="fill:#057d49;fill-opacity:1;fill-rule:evenodd;stroke:none"
           id="path98684"
           inkscape:connector-curvature="0" /><path
           d="m 411.306,489.176 94.212,145.51 -47.747,-174.621 z"
           style="fill:#16a869;fill-opacity:1;fill-rule:evenodd;stroke:none"
           id="path98686"
           inkscape:connector-curvature="0" /><path
           d="m 525.081,477.223 c 3.714,9.191 -12.81,17.715 -29.932,27.488 -14.777,8.437 -20.39,27.035 -39.804,14.841 -21.805,-31.789 -43.607,-63.577 -65.414,-95.366 15.177,-9.211 30.351,-18.424 45.528,-27.635 29.875,26.892 59.747,53.782 89.622,80.672"
           style="fill:#12a163;fill-opacity:1;fill-rule:evenodd;stroke:none"
           id="path98688"
           inkscape:connector-curvature="0" /><path
           d="m 495.149,504.711 c -15.14,9.007 -28.579,19.853 -39.804,14.841 -21.805,-31.789 -43.607,-63.577 -65.414,-95.366 l 21.001,-12.747 z"
           style="fill:#16b36f;fill-opacity:1;fill-rule:evenodd;stroke:none"
           id="path98690"
           inkscape:connector-curvature="0" /><path
           d="m 538.916,481.322 c -4.895,25.853 -24.419,13.795 -43.767,23.389 -13.577,6.735 -14.553,28.669 -39.804,14.841 l 95.067,-98.939 z"
           style="fill:#1db573;fill-opacity:1;fill-rule:evenodd;stroke:none"
           id="path98692"
           inkscape:connector-curvature="0" /><path
           d="m 495.149,504.711 c -13.577,6.736 -14.553,28.669 -39.804,14.841 l 95.067,-98.939 c -29.795,52.594 -26.562,67.772 -55.263,84.098"
           style="fill:#3ccf8f;fill-opacity:1;fill-rule:evenodd;stroke:none"
           id="path98694"
           inkscape:connector-curvature="0" /><path
           d="m 455.345,519.552 28.406,-79.528 25.743,23.171 z"
           style="fill:#0c8752;fill-opacity:1;fill-rule:evenodd;stroke:none"
           id="path98696"
           inkscape:connector-curvature="0" /><path
           d="m 470.295,477.186 12.48,13.82 -27.43,28.546 z"
           style="fill:#12a163;fill-opacity:1;fill-rule:evenodd;stroke:none"
           id="path98698"
           inkscape:connector-curvature="0" /><path
           d="m 281.861,470.881 c -3.349,8.284 13.113,14.344 28.542,23.152 13.32,7.604 18.378,24.365 35.878,13.375 19.649,-28.65 39.3,-57.3 58.95,-85.951 -13.674,-8.302 -27.352,-16.604 -41.03,-24.906 z"
           style="fill:#16b36f;fill-opacity:1;fill-rule:evenodd;stroke:none"
           id="path98700"
           inkscape:connector-curvature="0" /><path
           d="m 310.404,494.033 c 13.646,8.116 25.759,17.893 35.877,13.375 19.649,-28.65 39.3,-57.3 58.95,-85.951 l -18.924,-11.488 z"
           style="fill:#12a163;fill-opacity:1;fill-rule:evenodd;stroke:none"
           id="path98702"
           inkscape:connector-curvature="0" /><path
           d="m 266.744,491.238 c 7.749,22.117 19.712,4.95 37.148,13.597 12.237,6.068 19.629,15.036 42.389,2.573 l -92.189,-52.273 z"
           style="fill:#3ccf8f;fill-opacity:1;fill-rule:evenodd;stroke:none"
           id="path98704"
           inkscape:connector-curvature="0" /><path
           d="m 303.893,504.835 c 12.237,6.071 19.628,15.036 42.388,2.573 l -92.189,-52.273 c 18.713,29.966 31.154,39.897 49.801,49.7"
           style="fill:#1db573;fill-opacity:1;fill-rule:evenodd;stroke:none"
           id="path98706"
           inkscape:connector-curvature="0" /><path
           d="m 346.281,507.408 -28.659,-68.809 -35.761,32.282 z"
           style="fill:#12a163;fill-opacity:1;fill-rule:evenodd;stroke:none"
           id="path98708"
           inkscape:connector-curvature="0" /><path
           d="m 331.143,471.064 -16.579,18.361 31.717,17.983 z"
           style="fill:#0c8752;fill-opacity:1;fill-rule:evenodd;stroke:none"
           id="path98710"
           inkscape:connector-curvature="0" /><path
           d="m 353.694,499.29 c 6.537,18.303 71.439,19.981 82.021,0 L 410.224,389.537 h -34.218 z"
           style="fill:#0a8f55;fill-opacity:1;fill-rule:evenodd;stroke:none"
           id="path98712"
           inkscape:connector-curvature="0" /><path
           d="m 353.694,499.29 c 6.537,18.303 71.436,19.981 82.021,0 l -40.426,-38.175 z"
           style="fill:#16a869;fill-opacity:1;fill-rule:evenodd;stroke:none"
           id="path98714"
           inkscape:connector-curvature="0" /><path
           d="m 395.289,513.646 c 17.684,-0.149 35.336,-4.747 40.426,-14.356 L 410.224,389.537 h -14.935 z"
           style="fill:#057d49;fill-opacity:1;fill-rule:evenodd;stroke:none"
           id="path98716"
           inkscape:connector-curvature="0" /><path
           d="m 395.289,513.646 c 17.684,-0.149 35.336,-4.747 40.426,-14.356 l -40.426,-38.175 z"
           style="fill:#0a8f55;fill-opacity:1;fill-rule:evenodd;stroke:none"
           id="path98718"
           inkscape:connector-curvature="0" /><path
           d="m 353.694,499.29 41.595,-52.811 v 14.636 z"
           style="fill:#057d49;fill-opacity:1;fill-rule:evenodd;stroke:none"
           id="path98720"
           inkscape:connector-curvature="0" /><path
           d="m 395.289,461.115 40.426,38.175 -40.426,-52.811 z"
           style="fill:#02663b;fill-opacity:1;fill-rule:evenodd;stroke:none"
           id="path98722"
           inkscape:connector-curvature="0" /><path
           d="m 500.294,414.755 c 3.006,5.379 -10.365,10.37 -24.219,16.092 -11.96,4.941 -16.498,15.829 -32.208,8.69 -17.642,-18.612 -35.287,-37.224 -52.929,-55.836 12.28,-5.393 30.123,-7.16 42.402,-12.555 24.174,15.745 42.779,27.864 66.954,43.609"
           style="fill:#057d49;fill-opacity:1;fill-rule:evenodd;stroke:none"
           id="path98724"
           inkscape:connector-curvature="0" /><path
           d="m 476.075,430.847 c -12.253,5.273 -23.126,11.625 -32.208,8.69 -17.642,-18.612 -35.287,-37.224 -52.929,-55.836 l 16.994,-7.462 z"
           style="fill:#0a8f55;fill-opacity:1;fill-rule:evenodd;stroke:none"
           id="path98726"
           inkscape:connector-curvature="0" /><path
           d="m 500.291,414.755 c 3.604,16.084 -8.562,10.475 -24.216,16.092 -10.988,3.943 -11.776,16.786 -32.208,8.69 l 46.955,-49.203 z"
           style="fill:#0a8f55;fill-opacity:1;fill-rule:evenodd;stroke:none"
           id="path98728"
           inkscape:connector-curvature="0" /><path
           d="m 476.075,430.847 c -10.988,3.944 -11.776,16.786 -32.208,8.69 15.651,-16.4 31.304,-32.801 46.955,-49.203 0.008,14.385 -2.39,28.337 -14.747,40.513"
           style="fill:#16a869;fill-opacity:1;fill-rule:evenodd;stroke:none"
           id="path98730"
           inkscape:connector-curvature="0" /><path
           d="m 443.867,439.537 21.321,-43.715 14.893,5.767 z"
           style="fill:#02663b;fill-opacity:1;fill-rule:evenodd;stroke:none"
           id="path98732"
           inkscape:connector-curvature="0" /><path
           d="m 455.966,414.731 6.557,5.256 -18.656,19.55 z"
           style="fill:#057d49;fill-opacity:1;fill-rule:evenodd;stroke:none"
           id="path98734"
           inkscape:connector-curvature="0" /><path
           d="m 304.762,410.091 c -2.711,4.849 9.34,9.348 21.826,14.505 10.775,4.451 14.871,14.265 29.028,7.83 15.901,-16.774 31.801,-33.547 47.702,-50.322 -11.066,-4.86 -22.134,-9.721 -33.2,-14.582 -21.787,14.19 -43.571,28.38 -65.356,42.569"
           style="fill:#0a8f55;fill-opacity:1;fill-rule:evenodd;stroke:none"
           id="path98736"
           inkscape:connector-curvature="0" /><path
           d="m 326.588,424.596 c 11.043,4.752 20.842,10.476 29.028,7.83 15.901,-16.774 31.801,-33.547 47.702,-50.322 l -15.314,-6.726 z"
           style="fill:#057d49;fill-opacity:1;fill-rule:evenodd;stroke:none"
           id="path98738"
           inkscape:connector-curvature="0" /><path
           d="m 304.762,410.091 c -3.248,14.497 7.717,9.441 21.826,14.505 9.902,3.552 10.613,15.128 29.028,7.83 l -42.319,-44.344 z"
           style="fill:#16a869;fill-opacity:1;fill-rule:evenodd;stroke:none"
           id="path98740"
           inkscape:connector-curvature="0" /><path
           d="m 326.588,424.596 c 9.902,3.553 10.613,15.128 29.028,7.83 -14.106,-14.781 -28.211,-29.563 -42.319,-44.344 -0.007,12.964 2.156,25.539 13.291,36.514"
           style="fill:#0a8f55;fill-opacity:1;fill-rule:evenodd;stroke:none"
           id="path98742"
           inkscape:connector-curvature="0" /><path
           d="M 355.616,432.426 336.4,393.028 322.979,398.227 Z"
           style="fill:#057d49;fill-opacity:1;fill-rule:evenodd;stroke:none"
           id="path98744"
           inkscape:connector-curvature="0" /><path
           d="m 344.712,410.07 -5.911,4.738 16.815,17.618 z"
           style="fill:#02663b;fill-opacity:1;fill-rule:evenodd;stroke:none"
           id="path98746"
           inkscape:connector-curvature="0" /><path
           d="m 366.597,427.674 c 4.494,10.715 49.129,11.698 56.406,0 -3.604,-21.42 -7.21,-42.838 -10.814,-64.259 h -36.827 c -2.921,21.421 -5.842,42.839 -8.765,64.259"
           style="fill:#0a8f55;fill-opacity:1;fill-rule:evenodd;stroke:none"
           id="path98748"
           inkscape:connector-curvature="0" /><path
           d="m 366.597,427.674 c 4.494,10.714 49.129,11.698 56.406,0 l -27.802,-22.352 z"
           style="fill:#16a869;fill-opacity:1;fill-rule:evenodd;stroke:none"
           id="path98750"
           inkscape:connector-curvature="0" /><path
           d="m 395.201,436.079 c 12.163,-0.088 24.301,-2.78 27.802,-8.405 -3.604,-21.42 -7.21,-42.839 -10.814,-64.259 h -16.988 z"
           style="fill:#057d49;fill-opacity:1;fill-rule:evenodd;stroke:none"
           id="path98752"
           inkscape:connector-curvature="0" /><path
           d="m 395.201,436.079 c 12.163,-0.088 24.301,-2.78 27.802,-8.405 l -27.802,-22.352 z"
           style="fill:#0a8f55;fill-opacity:1;fill-rule:evenodd;stroke:none"
           id="path98754"
           inkscape:connector-curvature="0" /><path
           d="m 366.597,427.674 28.604,-30.921 v 8.569 z"
           style="fill:#057d49;fill-opacity:1;fill-rule:evenodd;stroke:none"
           id="path98756"
           inkscape:connector-curvature="0" /><path
           d="m 395.201,405.322 27.802,22.352 -27.802,-30.921 z"
           style="fill:#02663b;fill-opacity:1;fill-rule:evenodd;stroke:none"
           id="path98758"
           inkscape:connector-curvature="0" /><path
           d="m 412.498,383.998 c 57.563,11.793 44.078,1.929 78.955,-36.693 -41.612,8.806 -30.114,20.218 -64.098,23.344 -4.953,4.45 -9.904,8.899 -14.857,13.349"
           style="fill:#16a869;fill-opacity:1;fill-rule:evenodd;stroke:none"
           id="path98760"
           inkscape:connector-curvature="0" /><path
           d="m 377.907,383.998 c -52.678,6.205 -39.194,6.958 -74.071,-31.664 41.616,8.806 25.233,15.189 59.214,18.315 4.953,4.45 9.907,8.899 14.857,13.349"
           style="fill:#057d49;fill-opacity:1;fill-rule:evenodd;stroke:none"
           id="path98762"
           inkscape:connector-curvature="0" /><path
           d="m 427.355,370.649 -32.154,-20.483 -32.151,20.483 c 0.002,25.627 64.308,25.45 64.305,0"
           style="fill:#16a869;fill-opacity:1;fill-rule:evenodd;stroke:none"
           id="path98764"
           inkscape:connector-curvature="0" /><path
           d="m 427.355,370.649 -32.154,-20.483 v 39.638 c 16.079,-0.022 32.157,-6.43 32.154,-19.155"
           style="fill:#0a8f55;fill-opacity:1;fill-rule:evenodd;stroke:none"
           id="path98766"
           inkscape:connector-curvature="0" /><path
           d="m 278.666,243.56 1.681,-3.573 2.697,-2.406 -2.616,-2.295 -1.762,-3.683 -1.681,3.575 -2.695,2.403 2.615,2.298 z"
           style="fill:#ffe4ad;fill-opacity:1;fill-rule:evenodd;stroke:none"
           id="path98768"
           inkscape:connector-curvature="0" /><path
           d="m 323.888,241.886 1.68,-3.573 2.698,-2.406 -2.618,-2.295 -1.76,-3.683 -1.681,3.572 -2.697,2.406 2.616,2.295 z"
           style="fill:#ffe4ad;fill-opacity:1;fill-rule:evenodd;stroke:none"
           id="path98770"
           inkscape:connector-curvature="0" /><path
           d="m 373.904,243.437 1.682,-3.574 2.697,-2.405 -2.617,-2.296 -1.762,-3.683 -1.679,3.573 -2.697,2.406 2.617,2.295 z"
           style="fill:#ffe4ad;fill-opacity:1;fill-rule:evenodd;stroke:none"
           id="path98772"
           inkscape:connector-curvature="0" /><path
           d="m 398.393,101.079 1.682,-3.575 2.695,-2.403 -2.615,-2.298 -1.762,-3.684 -1.682,3.576 -2.694,2.406 2.617,2.295 z m 46.852,6.952 1.68,-3.572 2.696,-2.406 -2.614,-2.298 -1.762,-3.681 -1.682,3.573 -2.694,2.406 2.614,2.295 z m 26.719,20.241 1.682,-3.572 2.698,-2.406 -2.617,-2.295 -1.763,-3.684 -1.679,3.573 -2.697,2.406 2.614,2.295 z m -48.377,-1.777 1.68,-3.575 2.697,-2.403 -2.617,-2.295 -1.76,-3.684 -1.682,3.572 -2.697,2.407 2.617,2.295 z m -23.711,32.151 1.683,-3.575 2.694,-2.405 -2.617,-2.295 -1.76,-3.683 -1.682,3.572 -2.694,2.406 2.615,2.298 z m 23.846,29.273 1.678,-3.573 2.698,-2.408 -2.615,-2.295 -1.761,-3.681 -1.683,3.572 -2.697,2.404 2.617,2.297 z m 24.351,-30.119 1.68,-3.573 2.696,-2.406 -2.616,-2.296 -1.76,-3.682 -1.681,3.572 -2.698,2.406 2.618,2.295 z m 47.679,0 1.683,-3.573 2.696,-2.406 -2.616,-2.296 -1.763,-3.682 -1.679,3.572 -2.697,2.406 2.614,2.295 z m -24.398,29.8 1.682,-3.574 2.694,-2.405 -2.614,-2.295 -1.762,-3.681 -1.679,3.57 -2.697,2.406 2.614,2.298 z m 47.409,-0.013 1.681,-3.573 2.698,-2.406 -2.618,-2.295 -1.761,-3.683 -1.68,3.572 -2.697,2.406 2.617,2.295 z m -23.011,27.579 1.683,-3.572 2.696,-2.406 -2.616,-2.295 -1.763,-3.684 -1.679,3.573 -2.697,2.406 2.614,2.294 z m -25.276,137.898 1.681,-3.573 2.697,-2.405 -2.617,-2.295 -1.761,-3.684 -1.68,3.573 -2.696,2.406 2.616,2.296 z m -48.143,-0.201 1.68,-3.572 2.696,-2.406 -2.614,-2.295 -1.762,-3.684 -1.683,3.573 -2.694,2.406 2.615,2.295 z m 24.435,-139.371 1.681,-3.575 2.695,-2.406 -2.615,-2.295 -1.761,-3.684 -1.68,3.572 -2.697,2.407 2.615,2.298 z m 46.612,111.835 1.682,-3.572 2.697,-2.406 -2.617,-2.295 -1.762,-3.682 -1.68,3.571 -2.696,2.406 2.617,2.297 z m -48.143,-0.2 1.682,-3.573 2.697,-2.406 -2.617,-2.294 -1.762,-3.684 -1.679,3.572 -2.697,2.406 2.615,2.295 z m -46.383,0.946 1.682,-3.572 2.696,-2.406 -2.616,-2.296 -1.762,-3.683 -1.68,3.572 -2.694,2.407 2.615,2.296 z m 1.582,-112.296 1.679,-3.572 2.697,-2.406 -2.615,-2.295 -1.761,-3.684 -1.683,3.574 -2.696,2.405 2.617,2.296 z m 118.094,83.411 1.68,-3.573 2.697,-2.406 -2.615,-2.296 -1.762,-3.683 -1.681,3.574 -2.695,2.405 2.615,2.295 z m -48.142,-0.202 1.679,-3.573 2.698,-2.406 -2.618,-2.295 -1.759,-3.684 -1.682,3.574 -2.697,2.405 2.617,2.297 z m -46.383,0.948 1.682,-3.575 2.694,-2.404 -2.614,-2.297 -1.762,-3.683 -1.68,3.573 -2.697,2.407 2.615,2.295 z m 70.534,-26.877 1.68,-3.573 2.696,-2.406 -2.614,-2.295 -1.762,-3.683 -1.682,3.573 -2.694,2.405 2.614,2.295 z m -48.143,-0.201 1.68,-3.573 2.696,-2.405 -2.614,-2.296 -1.762,-3.683 -1.681,3.573 -2.694,2.406 2.614,2.295 z m -46.383,0.948 1.679,-3.575 2.7,-2.406 -2.617,-2.296 -1.762,-3.682 -1.68,3.572 -2.699,2.406 2.617,2.297 z m 120.096,-29.174 1.68,-3.572 2.697,-2.407 -2.615,-2.295 -1.762,-3.683 -1.681,3.572 -2.695,2.406 2.615,2.295 z m -48.142,-0.201 1.679,-3.573 2.698,-2.408 -2.617,-2.296 -1.76,-3.682 -1.682,3.575 -2.697,2.403 2.617,2.297 z m -46.383,0.945 1.682,-3.572 2.694,-2.406 -2.614,-2.295 -1.762,-3.684 -1.68,3.573 -2.697,2.406 2.614,2.294 z"
           style="fill:#f0d399;fill-opacity:1;fill-rule:evenodd;stroke:none"
           id="path98774"
           inkscape:connector-curvature="0" /><path
           d="m 350.892,214.148 1.679,-3.572 2.697,-2.406 -2.615,-2.295 -1.761,-3.684 -1.683,3.574 -2.696,2.405 2.617,2.295 z"
           style="fill:#ffe4ad;fill-opacity:1;fill-rule:evenodd;stroke:none"
           id="path98776"
           inkscape:connector-curvature="0" /><path
           d="m 298.317,270.313 1.68,-3.573 2.696,-2.406 -2.615,-2.295 -1.761,-3.684 -1.68,3.573 -2.698,2.406 2.616,2.295 z"
           style="fill:#ffe4ad;fill-opacity:1;fill-rule:evenodd;stroke:none"
           id="path98778"
           inkscape:connector-curvature="0" /><path
           d="m 348.336,271.863 1.68,-3.572 2.694,-2.406 -2.612,-2.295 -1.762,-3.684 -1.682,3.573 -2.696,2.406 2.617,2.295 z"
           style="fill:#ffe4ad;fill-opacity:1;fill-rule:evenodd;stroke:none"
           id="path98780"
           inkscape:connector-curvature="0" /><path
           d="m 277.087,298.119 1.681,-3.573 2.697,-2.405 -2.616,-2.297 -1.762,-3.682 -1.681,3.572 -2.695,2.407 2.616,2.295 z"
           style="fill:#ffe4ad;fill-opacity:1;fill-rule:evenodd;stroke:none"
           id="path98782"
           inkscape:connector-curvature="0" /><path
           d="m 322.309,296.442 1.68,-3.573 2.695,-2.404 -2.615,-2.297 -1.76,-3.682 -1.681,3.572 -2.697,2.407 2.616,2.295 z"
           style="fill:#ffe4ad;fill-opacity:1;fill-rule:evenodd;stroke:none"
           id="path98784"
           inkscape:connector-curvature="0" /><path
           d="m 372.328,297.992 1.679,-3.572 2.697,-2.404 -2.617,-2.297 -1.759,-3.684 -1.682,3.573 -2.697,2.408 2.617,2.295 z"
           style="fill:#ffe4ad;fill-opacity:1;fill-rule:evenodd;stroke:none"
           id="path98786"
           inkscape:connector-curvature="0" /><path
           d="m 297.159,324.583 1.681,-3.572 2.697,-2.407 -2.617,-2.294 -1.761,-3.684 -1.68,3.573 -2.697,2.405 2.615,2.295 z"
           style="fill:#ffe4ad;fill-opacity:1;fill-rule:evenodd;stroke:none"
           id="path98788"
           inkscape:connector-curvature="0" /><path
           d="m 347.177,326.134 1.68,-3.572 2.699,-2.407 -2.617,-2.296 -1.762,-3.682 -1.679,3.572 -2.7,2.406 2.618,2.296 z"
           style="fill:#ffe4ad;fill-opacity:1;fill-rule:evenodd;stroke:none"
           id="path98790"
           inkscape:connector-curvature="0" /><path
           d="m 302.192,213.231 1.68,-3.572 2.697,-2.406 -2.616,-2.295 -1.761,-3.684 -1.68,3.574 -2.697,2.405 2.616,2.295 z"
           style="fill:#ffe4ad;fill-opacity:1;fill-rule:evenodd;stroke:none"
           id="path98792"
           inkscape:connector-curvature="0" /><path
           d="m 324.273,353.87 1.679,-3.572 2.697,-2.406 -2.614,-2.295 -1.762,-3.684 -1.682,3.573 -2.696,2.406 2.616,2.296 z"
           style="fill:#ffe4ad;fill-opacity:1;fill-rule:evenodd;stroke:none"
           id="path98794"
           inkscape:connector-curvature="0" /><path
           d="m 375.95,353.811 1.681,-3.574 2.698,-2.406 -2.618,-2.296 -1.761,-3.682 -1.68,3.573 -2.697,2.405 2.615,2.296 z"
           style="fill:#ffe4ad;fill-opacity:1;fill-rule:evenodd;stroke:none"
           id="path98796"
           inkscape:connector-curvature="0" /><path
           d="m 374.919,187.329 1.68,-3.573 2.694,-2.405 -2.614,-2.295 -1.76,-3.684 -1.682,3.572 -2.697,2.407 2.617,2.295 z"
           style="fill:#ffe4ad;fill-opacity:1;fill-rule:evenodd;stroke:none"
           id="path98798"
           inkscape:connector-curvature="0" /><path
           d="m 326.679,187.329 1.679,-3.573 2.694,-2.405 -2.614,-2.295 -1.759,-3.684 -1.682,3.572 -2.697,2.407 2.616,2.295 z"
           style="fill:#ffe4ad;fill-opacity:1;fill-rule:evenodd;stroke:none"
           id="path98800"
           inkscape:connector-curvature="0" /><path
           d="m 279.283,185.294 1.681,-3.572 2.695,-2.407 -2.616,-2.294 -1.76,-3.684 -1.681,3.573 -2.697,2.405 2.616,2.295 z"
           style="fill:#ffe4ad;fill-opacity:1;fill-rule:evenodd;stroke:none"
           id="path98802"
           inkscape:connector-curvature="0" /><path
           d="m 301.916,157.687 1.681,-3.576 2.696,-2.406 -2.615,-2.295 -1.762,-3.683 -1.681,3.572 -2.695,2.406 2.614,2.298 z"
           style="fill:#ffe4ad;fill-opacity:1;fill-rule:evenodd;stroke:none"
           id="path98804"
           inkscape:connector-curvature="0" /><path
           d="m 350.902,158.057 1.68,-3.573 2.699,-2.406 -2.617,-2.295 -1.762,-3.683 -1.679,3.573 -2.7,2.405 2.617,2.295 z"
           style="fill:#ffe4ad;fill-opacity:1;fill-rule:evenodd;stroke:none"
           id="path98806"
           inkscape:connector-curvature="0" /><path
           d="m 325.571,131.237 1.679,-3.575 2.697,-2.403 -2.614,-2.298 -1.762,-3.681 -1.682,3.573 -2.696,2.406 2.616,2.295 z"
           style="fill:#ffe4ad;fill-opacity:1;fill-rule:evenodd;stroke:none"
           id="path98808"
           inkscape:connector-curvature="0" /><path
           d="m 374.6,128.172 1.682,-3.572 2.697,-2.407 -2.617,-2.297 -1.762,-3.681 -1.68,3.572 -2.696,2.406 2.616,2.295 z"
           style="fill:#ffe4ad;fill-opacity:1;fill-rule:evenodd;stroke:none"
           id="path98810"
           inkscape:connector-curvature="0" /><path
           d="m 349.408,101.639 1.679,-3.574 2.7,-2.406 -2.617,-2.297 -1.762,-3.681 -1.679,3.573 -2.7,2.405 2.617,2.296 z"
           style="fill:#ffe4ad;fill-opacity:1;fill-rule:evenodd;stroke:none"
           id="path98812"
           inkscape:connector-curvature="0" /></g></g></g></svg>